<svg width="650" height="650" viewBox="0 0 650 650" fill="none" xmlns="http://www.w3.org/2000/svg">
<g clip-path="url(#clip0_1_2)">
<path d="M559 123C559 169.944 520.944 208 474 208C427.056 208 389 169.944 389 123C389 76.0558 427.056 38 474 38C520.944 38 559 76.0558 559 123Z" stroke="black" stroke-width="40"/>
<rect x="332" y="111" width="30" height="47" transform="rotate(-90 332 111)" fill="black"/>
<rect x="229.256" y="211.653" width="30" height="23.2899" transform="rotate(-145 229.256 211.653)" fill="black"/>
<rect x="194.486" y="330.699" width="30" height="203.285" rx="15" transform="rotate(-45 194.486 330.699)" fill="black"/>
<rect x="213.737" y="293.951" width="30" height="254.95" rx="15" transform="rotate(-45 213.737 293.951)" fill="black"/>
<rect x="159.796" y="352.009" width="30" height="172.934" rx="15" transform="rotate(-45 159.796 352.009)" fill="black"/>
<rect x="331" y="166" width="30" height="48" transform="rotate(-90 331 166)" fill="black"/>
<path d="M326 123C326 153.928 300.928 179 270 179C239.072 179 214 153.928 214 123C214 92.0721 239.072 67 270 67C300.928 67 326 92.0721 326 123Z" stroke="black" stroke-width="40"/>
<circle cx="270" cy="123" r="15" fill="black"/>
<circle cx="474" cy="123" r="16" fill="white" stroke="black" stroke-width="10"/>
<path d="M239 279C239 320.421 205.421 354 164 354C122.579 354 89 320.421 89 279C89 237.579 122.579 204 164 204C205.421 204 239 237.579 239 279Z" stroke="black" stroke-width="40"/>
<circle cx="164" cy="279" r="13.75" fill="white" stroke="black" stroke-width="10"/>
<rect x="343.847" y="385.604" width="30" height="36.6531" transform="rotate(-135 343.847 385.604)" fill="black"/>
<path d="M410.647 376.787C409.152 378.282 407.965 379.308 407.067 380.006C406.873 379.802 406.665 379.577 406.443 379.328C403.637 376.2 400.838 372.176 396.864 366.46C395.807 364.941 394.668 363.302 393.423 361.528C387.97 353.762 381.154 344.467 372.463 335.775C363.771 327.083 354.476 320.268 346.709 314.815C344.936 313.57 343.297 312.43 341.778 311.374C336.062 307.399 332.037 304.601 328.909 301.795C328.661 301.572 328.436 301.364 328.232 301.171C328.93 300.273 329.956 299.086 331.451 297.591C343.451 285.591 368.736 270.645 394.905 262.413C407.801 258.356 419.663 256.34 429.197 256.616C438.854 256.896 443.877 259.404 446.355 261.882C448.833 264.36 451.341 269.384 451.621 279.04C451.898 288.575 449.882 300.437 445.825 313.333C437.592 339.501 422.647 364.787 410.647 376.787ZM409.056 381.809C409.056 381.81 409.038 381.8 409.002 381.776C409.038 381.796 409.056 381.808 409.056 381.809ZM326.429 299.182C326.43 299.182 326.442 299.2 326.462 299.236C326.438 299.2 326.428 299.182 326.429 299.182Z" stroke="black" stroke-width="40"/>
<rect x="449.288" y="230.666" width="40" height="84.2096" transform="rotate(45 449.288 230.666)" fill="white"/>
<path d="M112.075 567.988C116.666 567.988 120.029 566.695 122.163 564.108C124.297 561.521 125.364 558.45 125.364 554.893V548.103C125.364 543.9 124.006 540.925 121.29 539.179C118.574 537.368 115.502 536.463 112.075 536.463H104.509V567.988H112.075ZM124.006 502.416C124.006 498.536 122.939 495.852 120.805 494.365C118.671 492.813 115.599 492.037 111.59 492.037H104.509V520.07H112.366C116.117 520.07 118.994 518.615 120.999 515.705C123.004 512.73 124.006 509.109 124.006 504.841V502.416ZM118.671 587.873C113.627 587.873 107.096 587.744 99.077 587.485C91.0583 587.226 85.303 587.065 81.811 587H72.499V473.316H89.28C93.354 473.316 98.01 473.187 103.248 472.928C108.486 472.605 112.269 472.443 114.597 472.443C122.163 472.443 128.533 473.057 133.706 474.286C138.944 475.515 143.05 477.358 146.025 479.815C149 482.272 151.101 485.118 152.33 488.351C153.623 491.584 154.27 495.432 154.27 499.894C154.27 506.749 152.686 512.633 149.517 517.548C146.348 522.463 141.757 525.534 135.743 526.763C151.004 528.121 158.635 537.077 158.635 553.632C158.635 558.611 157.891 563.138 156.404 567.212C154.917 571.221 152.621 574.81 149.517 577.979C146.478 581.083 142.339 583.508 137.101 585.254C131.863 587 125.72 587.873 118.671 587.873ZM207.76 577.397C210.606 577.397 212.772 576.233 214.259 573.905C215.811 571.512 216.587 568.247 216.587 564.108V533.456C216.587 520.846 213.613 514.541 207.663 514.541C204.883 514.541 202.716 515.673 201.164 517.936C199.612 520.199 198.836 523.4 198.836 527.539V559.064C198.836 571.286 201.811 577.397 207.76 577.397ZM206.984 589.037C192.176 589.037 181.344 585.674 174.489 578.949C167.635 572.224 164.207 561.489 164.207 546.745C164.207 532.13 167.667 521.137 174.586 513.765C181.506 506.328 192.758 502.61 208.342 502.61C223.539 502.61 234.5 506.167 241.225 513.28C248.015 520.329 251.41 531.031 251.41 545.387C251.41 560.26 247.821 571.254 240.643 578.367C233.53 585.48 222.31 589.037 206.984 589.037ZM284.675 589.037C275.945 589.037 269.834 586.418 266.342 581.18C262.915 575.942 261.201 567.083 261.201 554.602V521.622H254.508V508.139L265.954 504.55L275.848 481.949H292.92V504.55H308.828V521.622H292.629V557.706C292.629 562.879 293.373 566.307 294.86 567.988C296.347 569.669 298.643 570.51 301.747 570.51C303.105 570.51 304.334 570.348 305.433 570.025C306.532 569.702 307.438 569.249 308.149 568.667V581.859C307.179 582.829 305.918 583.799 304.366 584.769C302.814 585.674 300.227 586.612 296.606 587.582C293.049 588.552 289.072 589.037 284.675 589.037ZM385.583 576.718C377.371 584.931 367.606 589.037 356.289 589.037C348.271 589.037 341.319 587.647 335.434 584.866C329.614 582.085 324.991 578.076 321.563 572.838C318.136 567.6 315.614 561.618 313.997 554.893C312.445 548.168 311.669 540.505 311.669 531.904C311.669 525.502 311.993 519.747 312.639 514.638C313.351 509.529 314.482 504.647 316.034 499.991C317.586 495.335 319.72 491.326 322.436 487.963C325.152 484.536 328.483 481.561 332.427 479.039C336.372 476.517 341.157 474.642 346.783 473.413C352.409 472.12 358.811 471.473 365.989 471.473C369.223 471.473 372.294 471.667 375.204 472.055C378.179 472.443 380.701 472.928 382.77 473.51C384.84 474.027 386.78 474.706 388.59 475.547C390.466 476.323 391.921 477.034 392.955 477.681C394.055 478.263 395.057 478.91 395.962 479.621C396.868 480.332 397.417 480.817 397.611 481.076C397.87 481.335 398.064 481.529 398.193 481.658L396.738 503.968H379.084L373.555 491.067C372.133 490.291 369.837 489.903 366.668 489.903C364.082 489.903 361.948 490.129 360.266 490.582C358.585 491.035 356.904 492.005 355.222 493.492C353.606 494.915 352.312 497.016 351.342 499.797C350.437 502.513 349.693 506.231 349.111 510.952C348.529 515.608 348.238 521.299 348.238 528.024C348.238 542.057 348.982 552.468 350.469 559.258C352.021 566.048 355.093 569.443 359.684 569.443C361.948 569.443 363.855 569.249 365.407 568.861C366.959 568.408 368.414 567.632 369.772 566.533C371.13 565.369 372.133 563.688 372.779 561.489C373.426 559.226 373.749 556.348 373.749 552.856V542.962L360.945 540.052V520.264H404.11L404.013 587H386.747L385.583 576.718ZM458.419 536.851C458.419 528.638 457.998 522.818 457.158 519.391C456.317 515.964 454.765 514.25 452.502 514.25C450.562 514.25 448.977 514.606 447.749 515.317C446.52 515.964 445.615 517.031 445.033 518.518C444.451 519.941 444.063 521.428 443.869 522.98C443.739 524.467 443.675 526.375 443.675 528.703V536.851H458.419ZM450.659 589.037C443.416 589.037 437.111 587.938 431.744 585.739C426.441 583.54 422.238 580.469 419.134 576.524C416.094 572.579 413.863 568.15 412.441 563.235C411.018 558.256 410.307 552.727 410.307 546.648C410.307 532.163 413.993 521.202 421.365 513.765C428.737 506.328 439.051 502.61 452.308 502.61C465.047 502.61 474.165 505.617 479.662 511.631C485.158 517.58 487.907 527.183 487.907 540.44V551.207H443.578V553.05C443.578 556.865 443.966 560.002 444.742 562.459C445.582 564.916 446.779 566.727 448.331 567.891C449.883 569.055 451.467 569.831 453.084 570.219C454.7 570.607 456.673 570.801 459.001 570.801C461.264 570.801 463.689 570.51 466.276 569.928C468.927 569.346 471.578 568.441 474.23 567.212C476.946 565.983 479.209 564.528 481.02 562.847L486.743 572.644C484.35 576.524 480.826 579.79 476.17 582.441C471.578 585.028 467.149 586.774 462.881 587.679C458.613 588.584 454.539 589.037 450.659 589.037ZM529.746 587H498.415V524.241L492.595 520.652V510.273L513.45 504.55H529.94V517.063L531.104 515.608C531.88 514.573 533.011 513.345 534.499 511.922C536.051 510.499 537.764 509.109 539.64 507.751C541.515 506.328 543.746 505.132 546.333 504.162C548.984 503.127 551.571 502.61 554.093 502.61C562.952 502.61 569.192 505.035 572.814 509.885C576.5 514.735 578.343 522.851 578.343 534.232C578.343 534.62 578.343 535.202 578.343 535.978C578.278 536.754 578.246 537.368 578.246 537.821V587H546.236V535.008C546.43 528.929 543.843 525.89 538.476 525.89C538.088 525.89 537.7 525.922 537.312 525.987C536.988 526.052 536.665 526.116 536.342 526.181C536.083 526.246 535.76 526.375 535.372 526.569C535.048 526.698 534.757 526.828 534.499 526.957C534.24 527.022 533.949 527.183 533.626 527.442C533.302 527.636 533.044 527.798 532.85 527.927C532.656 528.056 532.365 528.283 531.977 528.606C531.653 528.865 531.395 529.059 531.201 529.188C531.071 529.317 530.813 529.544 530.425 529.867C530.101 530.126 529.875 530.32 529.746 530.449V587Z" fill="black"/>
<path d="M437.554 628.396C434.675 631.275 431.253 632.714 427.286 632.714C424.475 632.714 422.039 632.227 419.976 631.252C417.936 630.277 416.315 628.872 415.114 627.036C413.913 625.2 413.029 623.103 412.462 620.746C411.918 618.389 411.646 615.703 411.646 612.688C411.646 610.444 411.759 608.427 411.986 606.636C412.235 604.845 412.632 603.134 413.176 601.502C413.72 599.87 414.468 598.465 415.42 597.286C416.372 596.085 417.539 595.042 418.922 594.158C420.305 593.274 421.982 592.617 423.954 592.186C425.926 591.733 428.17 591.506 430.686 591.506C431.819 591.506 432.896 591.574 433.916 591.71C434.959 591.846 435.843 592.016 436.568 592.22C437.293 592.401 437.973 592.639 438.608 592.934C439.265 593.206 439.775 593.455 440.138 593.682C440.523 593.886 440.875 594.113 441.192 594.362C441.509 594.611 441.702 594.781 441.77 594.872C441.861 594.963 441.929 595.031 441.974 595.076L441.464 602.896H435.276L433.338 598.374C432.839 598.102 432.035 597.966 430.924 597.966C430.017 597.966 429.269 598.045 428.68 598.204C428.091 598.363 427.501 598.703 426.912 599.224C426.345 599.723 425.892 600.459 425.552 601.434C425.235 602.386 424.974 603.689 424.77 605.344C424.566 606.976 424.464 608.971 424.464 611.328C424.464 616.247 424.725 619.896 425.246 622.276C425.79 624.656 426.867 625.846 428.476 625.846C429.269 625.846 429.938 625.778 430.482 625.642C431.026 625.483 431.536 625.211 432.012 624.826C432.488 624.418 432.839 623.829 433.066 623.058C433.293 622.265 433.406 621.256 433.406 620.032V616.564L428.918 615.544V608.608H444.048L444.014 632H437.962L437.554 628.396ZM458.63 618.74V632H447.342V592.152H451.83C452.918 592.152 454.539 592.107 456.692 592.016C458.845 591.903 460.625 591.846 462.03 591.846C466.926 591.846 470.575 592.923 472.978 595.076C475.403 597.229 476.616 600.527 476.616 604.97C476.616 607.599 476.038 609.934 474.882 611.974C473.749 614.014 472.241 615.635 470.36 616.836C471.38 617.085 472.253 617.663 472.978 618.57C473.726 619.477 474.304 620.553 474.712 621.8C475.12 623.024 475.471 624.271 475.766 625.54C476.083 626.787 476.435 628.022 476.82 629.246C477.228 630.47 477.67 631.388 478.146 632H465.6C465.351 631.683 465.158 630.799 465.022 629.348C464.886 627.875 464.693 626.118 464.444 624.078C464.217 622.015 463.889 620.293 463.458 618.91C463.413 618.91 463.356 618.91 463.288 618.91C462.857 618.91 462.393 618.91 461.894 618.91C461.418 618.887 460.999 618.865 460.636 618.842C460.273 618.819 459.888 618.797 459.48 618.774C459.095 618.751 458.811 618.74 458.63 618.74ZM458.63 612.416H459.718C460.285 612.416 460.761 612.393 461.146 612.348C461.531 612.303 461.951 612.223 462.404 612.11C462.88 611.974 463.265 611.77 463.56 611.498C463.877 611.226 464.172 610.875 464.444 610.444C464.716 610.013 464.92 609.458 465.056 608.778C465.192 608.098 465.26 607.305 465.26 606.398V603.712C465.26 601.74 464.739 600.369 463.696 599.598C462.676 598.805 461.203 598.408 459.276 598.408H458.63V612.416ZM491.841 616.598C491.841 620.361 492.124 622.979 492.691 624.452C493.28 625.925 494.3 626.662 495.751 626.662C496.816 626.662 497.621 626.401 498.165 625.88C498.709 625.336 499.117 624.237 499.389 622.582C499.684 620.905 499.831 618.4 499.831 615.068V606.874C499.831 603.633 499.514 601.219 498.879 599.632C498.244 598.045 497.202 597.252 495.751 597.252C494.3 597.252 493.28 598.034 492.691 599.598C492.124 601.139 491.841 603.961 491.841 608.064V616.598ZM495.037 632.714C493.156 632.714 491.456 632.544 489.937 632.204C488.441 631.864 487.149 631.388 486.061 630.776C484.973 630.164 484.021 629.382 483.205 628.43C482.412 627.478 481.766 626.458 481.267 625.37C480.791 624.282 480.406 623.013 480.111 621.562C479.816 620.089 479.612 618.627 479.499 617.176C479.386 615.703 479.329 614.048 479.329 612.212C479.329 609.492 479.465 607.123 479.737 605.106C480.032 603.089 480.564 601.196 481.335 599.428C482.106 597.637 483.126 596.187 484.395 595.076C485.687 593.965 487.342 593.093 489.359 592.458C491.399 591.823 493.802 591.506 496.567 591.506C498.471 591.506 500.182 591.687 501.701 592.05C503.22 592.39 504.523 592.866 505.611 593.478C506.699 594.09 507.64 594.883 508.433 595.858C509.249 596.833 509.895 597.875 510.371 598.986C510.87 600.074 511.266 601.355 511.561 602.828C511.856 604.301 512.06 605.763 512.173 607.214C512.286 608.665 512.343 610.308 512.343 612.144C512.343 614.864 512.196 617.233 511.901 619.25C511.606 621.267 511.074 623.16 510.303 624.928C509.532 626.673 508.501 628.101 507.209 629.212C505.917 630.3 504.251 631.161 502.211 631.796C500.194 632.408 497.802 632.714 495.037 632.714ZM531.278 632.714C528.943 632.714 526.869 632.487 525.056 632.034C523.265 631.581 521.792 630.969 520.636 630.198C519.502 629.427 518.562 628.475 517.814 627.342C517.088 626.186 516.578 624.973 516.284 623.704C515.989 622.435 515.842 621.029 515.842 619.488V592.152H527.946V617.958C527.946 620.837 528.24 622.82 528.83 623.908C529.442 624.973 530.326 625.506 531.482 625.506C532.116 625.506 532.672 625.404 533.148 625.2C533.624 624.973 534.066 624.599 534.474 624.078C534.882 623.534 535.188 622.763 535.392 621.766C535.618 620.746 535.732 619.511 535.732 618.06V592.152H546.476V619.692C546.476 621.211 546.34 622.582 546.068 623.806C545.818 625.03 545.342 626.22 544.64 627.376C543.96 628.509 543.053 629.461 541.92 630.232C540.809 630.98 539.347 631.581 537.534 632.034C535.743 632.487 533.658 632.714 531.278 632.714ZM562.292 632H551.038V592.152H555.526C556.727 592.152 558.54 592.107 560.966 592.016C563.391 591.903 565.386 591.846 566.95 591.846C571.347 591.846 574.679 593.013 576.946 595.348C579.212 597.683 580.346 601.185 580.346 605.854C580.346 608.665 579.972 611.226 579.224 613.538C578.498 615.827 577.512 617.709 576.266 619.182C575.019 620.655 573.602 621.789 572.016 622.582C570.429 623.375 568.752 623.772 566.984 623.772C566.757 623.772 566.519 623.772 566.27 623.772C566.043 623.772 565.828 623.772 565.624 623.772C565.442 623.749 565.216 623.738 564.944 623.738C564.694 623.715 564.49 623.704 564.332 623.704C564.196 623.681 563.992 623.67 563.72 623.67C563.47 623.647 563.3 623.636 563.21 623.636C563.119 623.636 562.949 623.625 562.7 623.602C562.45 623.579 562.314 623.568 562.292 623.568V632ZM569.194 604.358C569.194 602.681 568.74 601.321 567.834 600.278C566.927 599.235 565.624 598.714 563.924 598.714H562.292V616.394H563.55C565.34 616.394 566.723 615.793 567.698 614.592C568.695 613.391 569.194 611.657 569.194 609.39V604.358Z" fill="black"/>
<path d="M340.5 273.5C349.721 278.605 370.402 313.145 365.5 322C360.598 330.855 329.221 324.605 320 319.5C310.779 314.395 303.598 304.355 308.5 295.5C313.402 286.645 331.279 268.395 340.5 273.5Z" fill="black"/>
<path d="M435 352C444.221 357.105 426.902 381.645 422 390.5C417.098 399.355 408.221 404.105 399 399C389.779 393.895 368.597 363.855 373.5 355C378.402 346.145 425.779 346.895 435 352Z" fill="black"/>
</g>
<defs>
<clipPath id="clip0_1_2">
<rect width="650" height="650" fill="white"/>
</clipPath>
</defs>
</svg>
